<?xml version="1.0" encoding="UTF-8"?>
<svg width="40px" height="24px" viewBox="0 0 40 24" version="1.1" xmlns="http://www.w3.org/2000/svg" xmlns:xlink="http://www.w3.org/1999/xlink">
    <!-- Generator: Sketch 53.2 (72643) - https://sketchapp.com -->
    <title>ic_card_mastercard</title>
    <desc>Created with Sketch.</desc>
    <g id="Page-1" stroke="none" stroke-width="1" fill="none" fill-rule="evenodd">
        <g id="Artboard-Copy-3" transform="translate(-1.000000, -1.000000)">
            <g id="ic_card_mastercard" transform="translate(1.000000, 1.000000)">
                <rect id="Mask-Copy" stroke="#E8E9EA" fill="#FFFFFF" x="0.5" y="0.5" width="39" height="23" rx="2"></rect>
                <g id="mc_vrt_pos" transform="translate(8.000000, 4.000000)" fill-rule="nonzero">
                    <g id="XMLID_328_">
                        <rect id="Rectangle-path" fill="#FF5F00" x="8.78644068" y="1.77608696" width="6.40677966" height="11.6891304"></rect>
                        <path d="M9.19322034,7.62065217 C9.19322034,5.24565217 10.2915254,3.13913043 11.979661,1.77608696 C10.7389831,0.784782609 9.17288136,0.185869565 7.46440678,0.185869565 C3.41694915,0.185869565 0.142372881,3.51086957 0.142372881,7.62065217 C0.142372881,11.7304348 3.41694915,15.0554348 7.46440678,15.0554348 C9.17288136,15.0554348 10.7389831,14.4565217 11.979661,13.4652174 C10.2915254,12.1228261 9.19322034,9.99565217 9.19322034,7.62065217 Z" id="XMLID_330_" fill="#EB001B"></path>
                        <path d="M23.8372881,7.62065217 C23.8372881,11.7304348 20.5627119,15.0554348 16.5152542,15.0554348 C14.8067797,15.0554348 13.240678,14.4565217 12,13.4652174 C13.7084746,12.1021739 14.7864407,9.99565217 14.7864407,7.62065217 C14.7864407,5.24565217 13.6881356,3.13913043 12,1.77608696 C13.240678,0.784782609 14.8067797,0.185869565 16.5152542,0.185869565 C20.5627119,0.185869565 23.8372881,3.53152174 23.8372881,7.62065217 Z" id="Shape" fill="#F79E1B"></path>
                    </g>
                </g>
            </g>
        </g>
    </g>
</svg>