<?xml version="1.0" encoding="UTF-8"?>
<svg width="40px" height="24px" viewBox="0 0 40 24" version="1.1" xmlns="http://www.w3.org/2000/svg" xmlns:xlink="http://www.w3.org/1999/xlink">
    <!-- Generator: Sketch 53.2 (72643) - https://sketchapp.com -->
    <title>ic_card_visa</title>
    <desc>Created with Sketch.</desc>
    <defs>
        <path d="M15.41,3.16818182 C15.3939394,4.50666667 16.6033333,5.25242424 17.5145455,5.69757576 L17.5145455,5.69757576 C18.4509091,6.1530303 18.7648485,6.44515152 18.7615152,6.85242424 L18.7615152,6.85242424 C18.7542424,7.47636364 18.0145455,7.75121212 17.3224242,7.76181818 L17.3224242,7.76181818 C16.1139394,7.78060606 15.4121212,7.43515152 14.8536364,7.17454545 L14.8536364,7.17454545 L14.4181818,9.21121212 C14.9793939,9.46878788 16.0160606,9.69393939 17.0912121,9.70484848 L17.0912121,9.70484848 C19.6169697,9.70484848 21.2687879,8.45757576 21.2766667,6.52515152 L21.2766667,6.52515152 C21.2875758,4.07272727 17.8851515,3.93727273 17.9087879,2.84151515 L17.9087879,2.84151515 C17.9163636,2.50818182 18.2336364,2.15393939 18.9284848,2.06333333 L18.9284848,2.06333333 C19.2724242,2.01818182 20.2221212,1.98363636 21.2984848,2.47878788 L21.2984848,2.47878788 L21.7209091,0.508484848 C21.1421212,0.298484848 20.3981818,0.0966666667 19.4715152,0.0966666667 L19.4715152,0.0966666667 C17.0957576,0.0966666667 15.4230303,1.35969697 15.41,3.16818182 L15.41,3.16818182 Z M25.7824242,0.266363636 C25.3209091,0.266363636 24.9315152,0.534545455 24.7590909,0.947878788 L24.7590909,0.947878788 L21.1515152,9.55939394 L23.6757576,9.55939394 L24.1769697,8.17090909 L27.2612121,8.17090909 L27.5518182,9.55939394 L29.7751515,9.55939394 L27.8342424,0.266363636 L25.7824242,0.266363636 Z M26.1345455,2.77727273 L26.8630303,6.26636364 L24.8687879,6.26636364 L26.1345455,2.77727273 Z M12.3512121,0.266363636 L10.3624242,9.55939394 L12.7666667,9.55939394 L14.7545455,0.266363636 L12.3512121,0.266363636 Z M8.79424242,0.266363636 L6.29242424,6.59121212 L5.28,1.21363636 C5.16151515,0.613030303 4.69242424,0.266363636 4.17151515,0.266363636 L4.17151515,0.266363636 L0.0806060606,0.266363636 L0.0239393939,0.536060606 C0.863333333,0.718484848 1.81757576,1.01272727 2.39575758,1.32666667 L2.39575758,1.32666667 C2.74939394,1.51848485 2.85,1.68636364 2.96666667,2.14272727 L2.96666667,2.14272727 L4.88333333,9.55939394 L7.42454545,9.55939394 L11.3193939,0.266363636 L8.79424242,0.266363636 Z" id="path-1"></path>
        <linearGradient x1="0.000103484452%" y1="49.9980288%" x2="99.999809%" y2="49.9980288%" id="linearGradient-3">
            <stop stop-color="#231F5C" offset="0%"></stop>
            <stop stop-color="#034EA2" offset="100%"></stop>
        </linearGradient>
    </defs>
    <g id="Page-1" stroke="none" stroke-width="1" fill="none" fill-rule="evenodd">
        <g id="Artboard-Copy-5" transform="translate(-1.000000, -1.000000)">
            <g id="ic_card_visa" transform="translate(1.000000, 1.000000)">
                <rect id="Rectangle" stroke="#E8E9EA" fill="#FFFFFF" x="0.5" y="0.5" width="39" height="23" rx="2"></rect>
                <g id="Group-3-Clipped" transform="translate(5.000000, 7.000000)">
                    <g id="Group-3">
                        <g id="Group">
                            <g id="Fill-1-Clipped">
                                <mask id="mask-2" fill="white">
                                    <use xlink:href="#path-1"></use>
                                </mask>
                                <g id="path-3"></g>
                                <path d="M15.41,3.16818182 C15.3939394,4.50666667 16.6033333,5.25242424 17.5145455,5.69757576 L17.5145455,5.69757576 C18.4509091,6.1530303 18.7648485,6.44515152 18.7615152,6.85242424 L18.7615152,6.85242424 C18.7542424,7.47636364 18.0145455,7.75121212 17.3224242,7.76181818 L17.3224242,7.76181818 C16.1139394,7.78060606 15.4121212,7.43515152 14.8536364,7.17454545 L14.8536364,7.17454545 L14.4181818,9.21121212 C14.9793939,9.46878788 16.0160606,9.69393939 17.0912121,9.70484848 L17.0912121,9.70484848 C19.6169697,9.70484848 21.2687879,8.45757576 21.2766667,6.52515152 L21.2766667,6.52515152 C21.2875758,4.07272727 17.8851515,3.93727273 17.9087879,2.84151515 L17.9087879,2.84151515 C17.9163636,2.50818182 18.2336364,2.15393939 18.9284848,2.06333333 L18.9284848,2.06333333 C19.2724242,2.01818182 20.2221212,1.98363636 21.2984848,2.47878788 L21.2984848,2.47878788 L21.7209091,0.508484848 C21.1421212,0.298484848 20.3981818,0.0966666667 19.4715152,0.0966666667 L19.4715152,0.0966666667 C17.0957576,0.0966666667 15.4230303,1.35969697 15.41,3.16818182 L15.41,3.16818182 Z M25.7824242,0.266363636 C25.3209091,0.266363636 24.9315152,0.534545455 24.7590909,0.947878788 L24.7590909,0.947878788 L21.1515152,9.55939394 L23.6757576,9.55939394 L24.1769697,8.17090909 L27.2612121,8.17090909 L27.5518182,9.55939394 L29.7751515,9.55939394 L27.8342424,0.266363636 L25.7824242,0.266363636 Z M26.1345455,2.77727273 L26.8630303,6.26636364 L24.8687879,6.26636364 L26.1345455,2.77727273 Z M12.3512121,0.266363636 L10.3624242,9.55939394 L12.7666667,9.55939394 L14.7545455,0.266363636 L12.3512121,0.266363636 Z M8.79424242,0.266363636 L6.29242424,6.59121212 L5.28,1.21363636 C5.16151515,0.613030303 4.69242424,0.266363636 4.17151515,0.266363636 L4.17151515,0.266363636 L0.0806060606,0.266363636 L0.0239393939,0.536060606 C0.863333333,0.718484848 1.81757576,1.01272727 2.39575758,1.32666667 L2.39575758,1.32666667 C2.74939394,1.51848485 2.85,1.68636364 2.96666667,2.14272727 L2.96666667,2.14272727 L4.88333333,9.55939394 L7.42454545,9.55939394 L11.3193939,0.266363636 L8.79424242,0.266363636 Z" id="Fill-1" fill="url(#linearGradient-3)" mask="url(#mask-2)"></path>
                            </g>
                        </g>
                    </g>
                </g>
            </g>
        </g>
    </g>
</svg>